<?xml version="1.0" encoding="UTF-8"?>
<!DOCTYPE svg PUBLIC "-//W3C//DTD SVG 1.1//EN" "http://www.w3.org/Graphics/SVG/1.1/DTD/svg11.dtd">
<svg xmlns="http://www.w3.org/2000/svg" version="1.1" width="20px" height="20px" style="shape-rendering:geometricPrecision; text-rendering:geometricPrecision; image-rendering:optimizeQuality; fill-rule:evenodd; clip-rule:evenodd" xmlns:xlink="http://www.w3.org/1999/xlink">
<g><path style="opacity:0.707" fill="#45a257" d="M -0.5,-0.5 C 0.5,-0.5 1.5,-0.5 2.5,-0.5C 3.02832,0.72065 3.69499,1.88732 4.5,3C 8.15159,3.49863 11.8183,3.6653 15.5,3.5C 12.1667,4.16667 8.83333,4.83333 5.5,5.5C 5.5,5.83333 5.5,6.16667 5.5,6.5C 5.5,7.16667 5.5,7.83333 5.5,8.5C 5.5,10.1667 5.5,11.8333 5.5,13.5C 5.5,14.5 5.5,15.5 5.5,16.5C 4.21009,15.9423 3.37675,14.9423 3,13.5C 2.66667,10.5 2.33333,7.5 2,4.5C 1.62325,3.05773 0.789915,2.05773 -0.5,1.5C -0.5,0.833333 -0.5,0.166667 -0.5,-0.5 Z"/></g>
<g><path style="opacity:0.941" fill="#45a257" d="M 15.5,3.5 C 16.8333,3.83333 18.1667,4.16667 19.5,4.5C 19.5,6.16667 19.5,7.83333 19.5,9.5C 18.8333,9.16667 18.1667,8.83333 17.5,8.5C 17.6716,7.50838 17.3382,6.84171 16.5,6.5C 13.0381,5.51836 9.37141,5.18503 5.5,5.5C 8.83333,4.83333 12.1667,4.16667 15.5,3.5 Z"/></g>
<g><path style="opacity:0.981" fill="#43a157" d="M 5.5,6.5 C 9.16667,6.5 12.8333,6.5 16.5,6.5C 16.5,7.5 16.5,8.5 16.5,9.5C 12.7307,9.75599 9.06405,9.42266 5.5,8.5C 5.5,7.83333 5.5,7.16667 5.5,6.5 Z"/></g>
<g><path style="opacity:0.848" fill="#44a257" d="M 17.5,8.5 C 18.1667,8.83333 18.8333,9.16667 19.5,9.5C 19.5,10.5 19.5,11.5 19.5,12.5C 18.7281,13.6935 17.7281,14.6935 16.5,15.5C 16.1667,14.8333 15.8333,14.1667 15.5,13.5C 16.4345,12.4324 16.7678,11.099 16.5,9.5C 17.1667,9.5 17.5,9.16667 17.5,8.5 Z"/></g>
<g><path style="opacity:0.818" fill="#45a357" d="M 5.5,13.5 C 8.83333,14.8333 12.1667,14.8333 15.5,13.5C 15.8333,14.1667 16.1667,14.8333 16.5,15.5C 13.0381,16.4816 9.37141,16.815 5.5,16.5C 5.5,15.5 5.5,14.5 5.5,13.5 Z"/></g>
<g><path style="opacity:0.605" fill="#45a158" d="M 15.5,19.5 C 14.5,19.5 13.5,19.5 12.5,19.5C 13.5,16.8333 14.5,16.8333 15.5,19.5 Z"/></g>
<g><path style="opacity:0.875" fill="#44a156" d="M 7.5,19.5 C 6.5,19.5 5.5,19.5 4.5,19.5C 5.73993,17.0155 6.73993,17.0155 7.5,19.5 Z"/></g>
</svg>
