<?xml version="1.0" encoding="UTF-8"?>
<!DOCTYPE svg PUBLIC "-//W3C//DTD SVG 1.1//EN" "http://www.w3.org/Graphics/SVG/1.1/DTD/svg11.dtd">
<svg xmlns="http://www.w3.org/2000/svg" version="1.1" width="20px" height="20px" style="shape-rendering:geometricPrecision; text-rendering:geometricPrecision; image-rendering:optimizeQuality; fill-rule:evenodd; clip-rule:evenodd" xmlns:xlink="http://www.w3.org/1999/xlink">
<g><path style="opacity:0.644" fill="#3c3c3c" d="M 19.5,2.5 C 19.5,5.16667 19.5,7.83333 19.5,10.5C 16.4483,13.5553 13.1149,16.2219 9.5,18.5C 5.88505,16.2219 2.55172,13.5553 -0.5,10.5C -0.5,7.83333 -0.5,5.16667 -0.5,2.5C 0.988468,1.06146 2.8218,0.394797 5,0.5C 8,1.83333 11,1.83333 14,0.5C 16.1782,0.394797 18.0115,1.06146 19.5,2.5 Z M 2.5,2.5 C 5.1569,2.16202 7.49024,2.82869 9.5,4.5C 15.7593,0.707124 18.2593,2.37379 17,9.5C 14.6506,12.0168 12.1506,14.3501 9.5,16.5C 6.84939,14.3501 4.34939,12.0168 2,9.5C 1.29669,7.07085 1.46336,4.73752 2.5,2.5 Z"/></g>
</svg>
