<svg xmlns="http://www.w3.org/2000/svg" style="display:none;">
<symbol id="cart-icon" viewBox="0 0 24 24">
<g><path style="opacity:0.707" fill="#45a257" d="M -0.5,-0.5 C 0.5,-0.5 1.5,-0.5 2.5,-0.5C 3.02832,0.72065 3.69499,1.88732 4.5,3C 8.15159,3.49863 11.8183,3.6653 15.5,3.5C 12.1667,4.16667 8.83333,4.83333 5.5,5.5C 5.5,5.83333 5.5,6.16667 5.5,6.5C 5.5,7.16667 5.5,7.83333 5.5,8.5C 5.5,10.1667 5.5,11.8333 5.5,13.5C 5.5,14.5 5.5,15.5 5.5,16.5C 4.21009,15.9423 3.37675,14.9423 3,13.5C 2.66667,10.5 2.33333,7.5 2,4.5C 1.62325,3.05773 0.789915,2.05773 -0.5,1.5C -0.5,0.833333 -0.5,0.166667 -0.5,-0.5 Z"/></g>
<g><path style="opacity:0.941" fill="#45a257" d="M 15.5,3.5 C 16.8333,3.83333 18.1667,4.16667 19.5,4.5C 19.5,6.16667 19.5,7.83333 19.5,9.5C 18.8333,9.16667 18.1667,8.83333 17.5,8.5C 17.6716,7.50838 17.3382,6.84171 16.5,6.5C 13.0381,5.51836 9.37141,5.18503 5.5,5.5C 8.83333,4.83333 12.1667,4.16667 15.5,3.5 Z"/></g>
<g><path style="opacity:0.981" fill="#43a157" d="M 5.5,6.5 C 9.16667,6.5 12.8333,6.5 16.5,6.5C 16.5,7.5 16.5,8.5 16.5,9.5C 12.7307,9.75599 9.06405,9.42266 5.5,8.5C 5.5,7.83333 5.5,7.16667 5.5,6.5 Z"/></g>
<g><path style="opacity:0.848" fill="#44a257" d="M 17.5,8.5 C 18.1667,8.83333 18.8333,9.16667 19.5,9.5C 19.5,10.5 19.5,11.5 19.5,12.5C 18.7281,13.6935 17.7281,14.6935 16.5,15.5C 16.1667,14.8333 15.8333,14.1667 15.5,13.5C 16.4345,12.4324 16.7678,11.099 16.5,9.5C 17.1667,9.5 17.5,9.16667 17.5,8.5 Z"/></g>
<g><path style="opacity:0.818" fill="#45a357" d="M 5.5,13.5 C 8.83333,14.8333 12.1667,14.8333 15.5,13.5C 15.8333,14.1667 16.1667,14.8333 16.5,15.5C 13.0381,16.4816 9.37141,16.815 5.5,16.5C 5.5,15.5 5.5,14.5 5.5,13.5 Z"/></g>
<g><path style="opacity:0.605" fill="#45a158" d="M 15.5,19.5 C 14.5,19.5 13.5,19.5 12.5,19.5C 13.5,16.8333 14.5,16.8333 15.5,19.5 Z"/></g>
<g><path style="opacity:0.875" fill="#44a156" d="M 7.5,19.5 C 6.5,19.5 5.5,19.5 4.5,19.5C 5.73993,17.0155 6.73993,17.0155 7.5,19.5 Z"/></g>
</symbol>
<symbol id="heart-icon" viewBox="0 0 24 24">
 <path d="M10 18.8873C9.71527 18.8873 9.44077 18.7842 9.22684 18.5968C8.41888 17.8903 7.63992 17.2264 6.95267 16.6408L6.94916 16.6377C4.93423 14.9207 3.19427 13.4378 1.98364 11.9771C0.630341 10.3441 0 8.79578 0 7.10434C0 5.46097 0.563507 3.94485 1.58661 2.83508C2.62192 1.71219 4.04251 1.09375 5.58716 1.09375C6.74164 1.09375 7.79892 1.45874 8.72955 2.1785C9.19922 2.54181 9.62494 2.98645 10 3.5051C10.3752 2.98645 10.8008 2.54181 11.2706 2.1785C12.2012 1.45874 13.2585 1.09375 14.413 1.09375C15.9575 1.09375 17.3782 1.71219 18.4135 2.83508C19.4366 3.94485 20 5.46097 20 7.10434C20 8.79578 19.3698 10.3441 18.0165 11.9769C16.8059 13.4378 15.0661 14.9205 13.0515 16.6374C12.363 17.224 11.5828 17.8889 10.773 18.5971C10.5592 18.7842 10.2846 18.8873 10 18.8873ZM5.58716 2.26532C4.37363 2.26532 3.25882 2.74963 2.44781 3.62915C1.62476 4.52194 1.17142 5.75607 1.17142 7.10434C1.17142 8.52692 1.70013 9.79919 2.88559 11.2296C4.03137 12.6122 5.73563 14.0645 7.70889 15.7462L7.71255 15.7492C8.4024 16.3371 9.18442 17.0036 9.99832 17.7153C10.8171 17.0023 11.6003 16.3347 12.2916 15.7458C14.2647 14.0642 15.9688 12.6122 17.1146 11.2296C18.2999 9.79919 18.8286 8.52692 18.8286 7.10434C18.8286 5.75607 18.3752 4.52194 17.5522 3.62915C16.7413 2.74963 15.6264 2.26532 14.413 2.26532C13.524 2.26532 12.7078 2.54791 11.9872 3.10516C11.3449 3.60199 10.8975 4.23004 10.6352 4.66949C10.5003 4.89548 10.2629 5.03036 10 5.03036C9.73709 5.03036 9.49966 4.89548 9.36478 4.66949C9.10263 4.23004 8.65524 3.60199 8.01285 3.10516C7.29218 2.54791 6.47598 2.26532 5.58716 2.26532Z" fill="#3D3D3D" />
</symbol>
<symbol id="search-icon" viewBox="0 0 24 24">
 <g clip-path="url(#clip0_1_132)">
    <path d="M14.5655 16.0022C10.5703 19.1858 4.98543 18.3048 2.02723 14.6536C-0.827947 11.1284 -0.649381 6.04306 2.44805 2.8245C5.6485 -0.500824 10.6802 -0.944742 14.3277 1.78307C15.6344 2.76019 16.6103 4.00328 17.2459 5.50798C17.8852 7.02142 18.0794 8.59605 17.8578 10.22C17.6367 11.8365 16.9918 13.2769 15.9422 14.6211C16.0272 14.6767 16.1177 14.7166 16.1826 14.7816C17.3364 15.9304 18.4859 17.0836 19.6397 18.2324C19.9131 18.5046 20.0493 18.8218 19.9681 19.2039C19.807 19.9643 18.9017 20.2578 18.321 19.7358C18.0488 19.4917 17.7985 19.2226 17.54 18.9641C16.5922 18.017 15.6451 17.0692 14.6973 16.122C14.6579 16.0846 14.6167 16.0496 14.5655 16.0022ZM15.9529 8.98627C15.9629 5.1265 12.8467 2.00597 8.97818 2.00035C5.12029 1.99473 2.00663 5.09029 1.98977 8.94757C1.97291 12.8167 5.08283 15.946 8.9632 15.9641C12.8055 15.9822 15.9429 12.8498 15.9529 8.98627Z" fill="#3D3D3D" />
  </g>
  <defs>
    <clipPath id="clip0_1_132">
      <rect width="19.9913" height="20" fill="white" />
    </clipPath>
  </defs>
</symbol>
</svg>